<svg width="87" height="49" viewBox="0 0 87 49" fill="none" xmlns="http://www.w3.org/2000/svg">
<path d="M85.8998 22.6194C85.9268 23.2433 85.9431 23.8702 85.9431 24.5008C85.9431 25.1304 85.9268 25.7563 85.9 26.3794" stroke="#000" stroke-width="1.56827"/>
<path d="M1.10006 26.3796C1.07308 25.7557 1.05677 25.1288 1.05677 24.4982C1.05677 23.8686 1.07308 23.2428 1.0999 22.6196" stroke="#000" stroke-width="1.56827"/>
<path d="M6.64549 32.0192C6.03341 29.5926 5.70471 27.0782 5.70471 24.4995C5.70471 21.9207 6.03359 19.4062 6.64567 16.9792" stroke="#000" stroke-width="1.56827"/>
<path d="M13.5455 37.9729C11.5373 33.8388 10.4094 29.2181 10.4094 24.3434C10.4094 19.4683 11.5373 14.8474 13.546 10.7129" stroke="#000" stroke-width="1.56827"/>
<path d="M24.5225 45.1801C18.7674 40.1658 15.1143 32.758 15.1143 24.5005C15.1143 16.2425 18.7681 8.83414 24.5239 3.82007" stroke="#000" stroke-width="1.56827"/>
<path d="M80.3545 16.9795C80.9666 19.4062 81.2953 21.9205 81.2953 24.4993C81.2953 27.0781 80.9664 29.5926 80.3543 32.0195" stroke="#000" stroke-width="1.56827"/>
<path d="M73.4545 10.7131C75.4627 14.8472 76.5906 19.4679 76.5906 24.3426C76.5906 29.2177 75.4627 33.8386 73.454 37.9731" stroke="#000" stroke-width="1.56827"/>
<path d="M62.4775 3.81895C68.2326 8.83318 71.8857 16.241 71.8857 24.4986C71.8857 32.7566 68.2319 40.1649 62.4761 45.179" stroke="#000" stroke-width="1.56827"/>
<path fill-rule="evenodd" clip-rule="evenodd" d="M43.6568 48C30.6858 48 20.1326 37.4577 20.1326 24.4998C20.1326 11.542 30.6858 1 43.6568 1C56.6278 1 67.1805 11.542 67.1805 24.4998C67.1805 37.4577 56.6278 48 43.6568 48Z" stroke="#000" stroke-width="1.56827"/>
<path fill-rule="evenodd" clip-rule="evenodd" d="M43.6567 43.3C33.2796 43.3 24.8373 34.8661 24.8373 24.4996C24.8373 14.1332 33.2796 5.69995 43.6567 5.69995C54.0338 5.69995 62.4757 14.1332 62.4757 24.4996C62.4757 34.8661 54.0338 43.3 43.6567 43.3Z" stroke="#000" stroke-width="1.56827"/>
<path fill-rule="evenodd" clip-rule="evenodd" d="M43.6569 38.5997C35.874 38.5997 29.5422 32.2744 29.5422 24.4994C29.5422 16.7248 35.874 10.3997 43.6569 10.3997C51.4393 10.3997 57.771 16.7248 57.771 24.4994C57.771 32.2744 51.4393 38.5997 43.6569 38.5997Z" stroke="#000" stroke-width="1.56827"/>
<path fill-rule="evenodd" clip-rule="evenodd" d="M43.6567 33.8999C38.4684 33.8999 34.2468 29.6827 34.2468 24.4996C34.2468 19.3164 38.4684 15.0999 43.6567 15.0999C48.8449 15.0999 53.066 19.3164 53.066 24.4996C53.066 29.6827 48.8449 33.8999 43.6567 33.8999Z" stroke="#000" stroke-width="1.56827"/>
<path fill-rule="evenodd" clip-rule="evenodd" d="M43.6566 29.1996C41.0621 29.1996 38.9515 27.091 38.9515 24.4994C38.9515 21.908 41.0621 19.7996 43.6566 19.7996C46.2506 19.7996 48.3611 21.908 48.3611 24.4994C48.3611 27.091 46.2506 29.1996 43.6566 29.1996Z" stroke="#000" stroke-width="1.56827"/>
</svg>
